<svg width="16" height="16" viewBox="0 0 16 16" fill="none" xmlns="http://www.w3.org/2000/svg">
<path d="M13.9669 2.03261C13.5196 1.58529 12.9129 1.33398 12.2803 1.33398C11.6476 1.33398 11.0409 1.58529 10.5936 2.03261L2.6256 10.0006C2.3548 10.2714 2.16441 10.6121 2.0756 10.9846L1.3456 14.0526C1.32584 14.1357 1.32769 14.2225 1.35098 14.3047C1.37428 14.3869 1.41824 14.4617 1.47867 14.5221C1.53911 14.5824 1.614 14.6263 1.6962 14.6495C1.77841 14.6727 1.86519 14.6745 1.94827 14.6546L5.0156 13.9239C5.38839 13.8353 5.72926 13.6449 6.00027 13.3739L13.9669 5.40728C14.4143 4.95994 14.6656 4.35323 14.6656 3.72061C14.6656 3.08799 14.4143 2.48128 13.9669 2.03395V2.03261ZM11.3003 2.73928C11.429 2.61058 11.5817 2.5085 11.7499 2.43885C11.918 2.3692 12.0983 2.33335 12.2803 2.33335C12.4623 2.33335 12.6425 2.3692 12.8106 2.43885C12.9788 2.5085 13.1316 2.61058 13.2603 2.73928C13.389 2.86798 13.4911 3.02076 13.5607 3.18891C13.6304 3.35706 13.6662 3.53728 13.6662 3.71928C13.6662 3.90128 13.6304 4.0815 13.5607 4.24965C13.4911 4.4178 13.389 4.57059 13.2603 4.69928L12.6656 5.29328L10.7056 3.33395L11.3003 2.73995V2.73928ZM9.99894 4.04195L11.9589 6.00061L5.29227 12.6673C5.15227 12.8073 4.97627 12.9053 4.7836 12.9513L2.50627 13.4939L3.04827 11.2166C3.09427 11.0233 3.19294 10.8473 3.33294 10.7073L9.99894 4.04061V4.04195Z" fill="#5735DE"/>
</svg>
