<svg width="24" height="18" viewBox="0 0 24 18" fill="none" xmlns="http://www.w3.org/2000/svg">
<path d="M13.8009 9.33346C13.1565 9.33346 12.6176 9.1168 12.1842 8.68346C11.7509 8.25013 11.5342 7.71124 11.5342 7.0668C11.5342 6.42235 11.7509 5.88346 12.1842 5.45013C12.6176 5.0168 13.1565 4.80013 13.8009 4.80013C14.4454 4.80013 14.9842 5.0168 15.4176 5.45013C15.8509 5.88346 16.0676 6.42235 16.0676 7.0668C16.0676 7.71124 15.8509 8.25013 15.4176 8.68346C14.9842 9.1168 14.4454 9.33346 13.8009 9.33346ZM5.86758 13.6668C5.31758 13.6668 4.84675 13.471 4.45508 13.0793C4.06341 12.6876 3.86758 12.2168 3.86758 11.6668V2.4668C3.86758 1.9168 4.06341 1.44596 4.45508 1.0543C4.84675 0.66263 5.31758 0.466797 5.86758 0.466797H21.7342C22.2842 0.466797 22.7551 0.66263 23.1467 1.0543C23.5384 1.44596 23.7342 1.9168 23.7342 2.4668V11.6668C23.7342 12.2168 23.5384 12.6876 23.1467 13.0793C22.7551 13.471 22.2842 13.6668 21.7342 13.6668H5.86758ZM6.80091 12.7335H20.8009C20.8009 12.1779 20.9967 11.7057 21.3884 11.3168C21.7801 10.9279 22.2509 10.7335 22.8009 10.7335V3.40013C22.2454 3.40013 21.7731 3.2043 21.3842 2.81263C20.9954 2.42096 20.8009 1.95013 20.8009 1.40013H6.80091C6.80091 1.95569 6.60508 2.42791 6.21341 2.8168C5.82174 3.20569 5.35091 3.40013 4.80091 3.40013V10.7335C5.35647 10.7335 5.82869 10.9293 6.21758 11.321C6.60647 11.7126 6.80091 12.1835 6.80091 12.7335ZM19.8009 17.2668H2.26758C1.71758 17.2668 1.24674 17.071 0.855078 16.6793C0.463411 16.2876 0.267578 15.8168 0.267578 15.2668V4.40013H1.20091V15.2668C1.20091 15.5335 1.31202 15.7779 1.53424 16.0001C1.75647 16.2224 2.00091 16.3335 2.26758 16.3335H19.8009V17.2668ZM5.86758 12.7335H4.80091V1.40013H5.86758C5.57869 1.40013 5.32869 1.50569 5.11758 1.7168C4.90647 1.92791 4.80091 2.17791 4.80091 2.4668V11.6668C4.80091 11.9557 4.90647 12.2057 5.11758 12.4168C5.32869 12.6279 5.57869 12.7335 5.86758 12.7335Z" fill="#8971E8"/>
</svg>
