<svg width="33" height="32" viewBox="0 0 33 32" fill="none" xmlns="http://www.w3.org/2000/svg">
<mask id="mask0_3359_19437" style="mask-type:alpha" maskUnits="userSpaceOnUse" x="0" y="0" width="33" height="32">
<rect x="0.5" width="32" height="32" fill="#D9D9D9"/>
</mask>
<g mask="url(#mask0_3359_19437)">
<path d="M8.90039 23.4666C10.0337 22.6666 11.2171 22.0332 12.4504 21.5666C13.6837 21.0999 15.0337 20.8666 16.5004 20.8666C17.9671 20.8666 19.3171 21.0999 20.5504 21.5666C21.7837 22.0332 22.9671 22.6666 24.1004 23.4666C25.0115 22.5555 25.7504 21.4666 26.3171 20.1999C26.8837 18.9332 27.1671 17.5332 27.1671 15.9999C27.1671 13.0443 26.1282 10.5277 24.0504 8.4499C21.9726 6.37212 19.4559 5.33324 16.5004 5.33324C13.5448 5.33324 11.0282 6.37212 8.95039 8.4499C6.87261 10.5277 5.83372 13.0443 5.83372 15.9999C5.83372 17.5332 6.11706 18.9332 6.68372 20.1999C7.25039 21.4666 7.98928 22.5555 8.90039 23.4666ZM16.5014 16.4666C15.4341 16.4666 14.5337 16.1002 13.8004 15.3676C13.0671 14.6349 12.7004 13.7349 12.7004 12.6676C12.7004 11.6002 13.0667 10.6999 13.7994 9.96657C14.5321 9.23324 15.4321 8.86657 16.4994 8.86657C17.5667 8.86657 18.4671 9.2329 19.2004 9.96557C19.9337 10.6982 20.3004 11.5982 20.3004 12.6656C20.3004 13.7329 19.9341 14.6332 19.2014 15.3666C18.4687 16.0999 17.5687 16.4666 16.5014 16.4666ZM16.5004 27.5999C14.8782 27.5999 13.3615 27.2999 11.9504 26.6999C10.5393 26.0999 9.3115 25.2777 8.26706 24.2332C7.22261 23.1888 6.40039 21.961 5.80039 20.5499C5.20039 19.1388 4.90039 17.6221 4.90039 15.9999C4.90039 14.3777 5.20039 12.861 5.80039 11.4499C6.40039 10.0388 7.22261 8.81101 8.26706 7.76657C9.3115 6.72212 10.5393 5.8999 11.9504 5.2999C13.3615 4.6999 14.8782 4.3999 16.5004 4.3999C18.1226 4.3999 19.6393 4.6999 21.0504 5.2999C22.4615 5.8999 23.6893 6.72212 24.7337 7.76657C25.7782 8.81101 26.6004 10.0388 27.2004 11.4499C27.8004 12.861 28.1004 14.3777 28.1004 15.9999C28.1004 17.6221 27.8004 19.1388 27.2004 20.5499C26.6004 21.961 25.7782 23.1888 24.7337 24.2332C23.6893 25.2777 22.4615 26.0999 21.0504 26.6999C19.6393 27.2999 18.1226 27.5999 16.5004 27.5999ZM16.5004 26.6666C17.7448 26.6666 18.9837 26.4388 20.2171 25.9832C21.4504 25.5277 22.5004 24.911 23.3671 24.1332C22.5004 23.4221 21.4837 22.8555 20.3171 22.4332C19.1504 22.011 17.8782 21.7999 16.5004 21.7999C15.1226 21.7999 13.8448 22.0055 12.6671 22.4166C11.4893 22.8277 10.4782 23.3999 9.63372 24.1332C10.5004 24.911 11.5504 25.5277 12.7837 25.9832C14.0171 26.4388 15.2559 26.6666 16.5004 26.6666ZM16.5004 15.5332C17.3004 15.5332 17.9782 15.2555 18.5337 14.6999C19.0893 14.1443 19.3671 13.4666 19.3671 12.6666C19.3671 11.8666 19.0893 11.1888 18.5337 10.6332C17.9782 10.0777 17.3004 9.7999 16.5004 9.7999C15.7004 9.7999 15.0226 10.0777 14.4671 10.6332C13.9115 11.1888 13.6337 11.8666 13.6337 12.6666C13.6337 13.4666 13.9115 14.1443 14.4671 14.6999C15.0226 15.2555 15.7004 15.5332 16.5004 15.5332Z" fill="#8A8A8A"/>
</g>
</svg>
