<svg width="16" height="16" viewBox="0 0 16 16" fill="none" xmlns="http://www.w3.org/2000/svg">
<path d="M14.2846 15.1472L9.05065 9.91321C8.63398 10.2572 8.15481 10.5265 7.61315 10.7209C7.07148 10.9153 6.51112 11.0126 5.93206 11.0126C4.50776 11.0126 3.30233 10.5194 2.31577 9.53311C1.32922 8.5468 0.835938 7.34168 0.835938 5.91775C0.835938 4.49381 1.32909 3.28824 2.3154 2.30106C3.3017 1.3139 4.50683 0.820312 5.93077 0.820312C7.3547 0.820312 8.56026 1.31359 9.54744 2.30015C10.5346 3.2867 11.0282 4.49213 11.0282 5.91644C11.0282 6.51152 10.9283 7.0799 10.7285 7.62156C10.5287 8.16323 10.2622 8.63438 9.92883 9.03502L15.1628 14.269L14.2846 15.1472ZM5.93206 9.7626C7.00579 9.7626 7.91524 9.39001 8.66044 8.64481C9.40563 7.89962 9.77823 6.99016 9.77823 5.91644C9.77823 4.84272 9.40563 3.93326 8.66044 3.18806C7.91524 2.44287 7.00579 2.07027 5.93206 2.07027C4.85834 2.07027 3.94888 2.44287 3.20369 3.18806C2.45851 3.93326 2.08592 4.84272 2.08592 5.91644C2.08592 6.99016 2.45851 7.89962 3.20369 8.64481C3.94888 9.39001 4.85834 9.7626 5.93206 9.7626Z" fill="#1C1B1F"/>
</svg>