<svg width="65" height="65" viewBox="0 0 65 65" fill="none" xmlns="http://www.w3.org/2000/svg">
<path d="M23.3594 15.8438V12.5938C23.3594 12.3694 23.5413 12.1875 23.7656 12.1875H27.4219L29.0169 10.2735C30.7554 8.18733 34.0117 8.36128 35.518 10.6208L36.5625 12.1875H40.4885C40.7129 12.1875 40.8948 12.3694 40.8948 12.5938V15.8438C40.8948 16.0681 40.7129 16.25 40.4885 16.25H23.7656C23.5413 16.25 23.3594 16.0681 23.3594 15.8438Z" stroke="#5735DE" stroke-width="2.03125"/>
<path d="M23.3613 22.3438L20.3145 27.4219" stroke="#5735DE" stroke-width="2.4375" stroke-linecap="round"/>
<path d="M19.7769 22.7542L23.8934 27.0116" stroke="#5735DE" stroke-width="2.4375" stroke-linecap="round"/>
<path d="M44.998 34.5312L41.9512 39.6094" stroke="#5735DE" stroke-width="2.4375" stroke-linecap="round"/>
<path d="M41.4136 34.9417L45.5301 39.1991" stroke="#5735DE" stroke-width="2.4375" stroke-linecap="round"/>
<circle cx="45.7031" cy="25.3906" r="3.04688" fill="#8971E8"/>
<circle cx="21.3281" cy="39.6094" r="3.04688" fill="#8971E8"/>
<circle cx="37.5781" cy="51.7969" r="3.04688" fill="#8971E8"/>
<path d="M40.625 28.4375L28.4375 36.5625" stroke="#5735DE" stroke-width="2.4375" stroke-linecap="round"/>
<path d="M25.3906 42.6562L33.5156 48.75" stroke="#5735DE" stroke-width="2.4375" stroke-linecap="round"/>
<g clip-path="url(#clip0_1125_22765)">
<path d="M44.2941 18.0662C44.2434 18.0154 44.2148 17.9465 44.2148 17.8747C44.2148 17.8029 44.2434 17.734 44.2941 17.6832L45.5129 16.4644C45.5637 16.4137 45.6326 16.3851 45.7044 16.3851C45.7762 16.3851 45.8451 16.4137 45.8958 16.4644L47.1146 17.6832C47.1639 17.7343 47.1912 17.8027 47.1906 17.8737C47.19 17.9447 47.1615 18.0126 47.1113 18.0629C47.0611 18.1131 46.9932 18.1416 46.9221 18.1422C46.8511 18.1428 46.7827 18.1155 46.7316 18.0662L45.9752 17.333L45.9752 19.9059C45.9752 19.9778 45.9467 20.0466 45.8959 20.0974C45.8451 20.1482 45.7762 20.1768 45.7044 20.1768C45.6325 20.1768 45.5637 20.1482 45.5129 20.0974C45.4621 20.0466 45.4335 19.9778 45.4335 19.9059L45.4335 17.333L44.6771 18.0662C44.6263 18.1169 44.5574 18.1454 44.4856 18.1454C44.4138 18.1454 44.3449 18.1169 44.2941 18.0662Z" fill="#8971E8" stroke="#8971E8" stroke-width="0.40625"/>
</g>
<path d="M26.4062 12.1875H18.2813C16.0376 12.1875 14.2188 14.0063 14.2188 16.25V56.875C14.2188 59.1187 16.0376 60.9375 18.2812 60.9375H46.7187C48.9624 60.9375 50.7812 59.1187 50.7812 56.875V16.25C50.7812 14.0063 48.9624 12.1875 46.7188 12.1875H40.625" stroke="#5735DE" stroke-width="2.03125"/>
<defs>
<clipPath id="clip0_1125_22765">
<rect width="4.0625" height="4.0625" fill="white" transform="translate(43.6719 20.3125) rotate(-90)"/>
</clipPath>
</defs>
</svg>
