<svg width="24" height="24" viewBox="0 0 24 24" fill="none" xmlns="http://www.w3.org/2000/svg">
<path d="M9.86719 23.5999L9.40052 19.8666C8.93385 19.7332 8.41719 19.511 7.85052 19.1999C7.28385 18.8888 6.81163 18.5555 6.43385 18.1999L3.00052 19.6666L0.867188 15.9332L3.83385 13.6999C3.78941 13.4332 3.75052 13.1555 3.71719 12.8666C3.68385 12.5777 3.66719 12.2999 3.66719 12.0332C3.66719 11.7888 3.68385 11.5277 3.71719 11.2499C3.75052 10.9721 3.78941 10.6555 3.83385 10.2999L0.867188 8.06657L3.00052 4.3999L6.40052 5.83324C6.84497 5.45546 7.3283 5.11657 7.85052 4.81657C8.37274 4.51657 8.8783 4.28879 9.36719 4.13324L9.86719 0.399902H14.1339L14.6005 4.16657C15.1783 4.36657 15.6839 4.59435 16.1172 4.8499C16.5505 5.10546 17.0005 5.43324 17.4672 5.83324L21.0005 4.3999L23.1339 8.06657L20.0339 10.3999C20.1227 10.711 20.1727 10.9943 20.1839 11.2499C20.195 11.5055 20.2005 11.7555 20.2005 11.9999C20.2005 12.2221 20.1894 12.461 20.1672 12.7166C20.145 12.9721 20.1005 13.2888 20.0339 13.6666L23.0672 15.9332L20.9339 19.6666L17.4672 18.1666C17.0005 18.5666 16.5339 18.9055 16.0672 19.1832C15.6005 19.461 15.1116 19.6777 14.6005 19.8332L14.1339 23.5999H9.86719ZM10.6672 22.6666H13.2672L13.7672 19.0332C14.4339 18.8555 15.0283 18.6166 15.5505 18.3166C16.0727 18.0166 16.6227 17.5888 17.2005 17.0332L20.5339 18.4666L21.8672 16.1999L18.9339 13.9999C19.045 13.5999 19.1172 13.2443 19.1505 12.9332C19.1839 12.6221 19.2005 12.311 19.2005 11.9999C19.2005 11.6666 19.1839 11.3555 19.1505 11.0666C19.1172 10.7777 19.045 10.4443 18.9339 10.0666L21.9339 7.7999L20.6005 5.53324L17.1672 6.96657C16.7894 6.54435 16.2616 6.13324 15.5839 5.73324C14.9061 5.33324 14.2894 5.07768 13.7339 4.96657L13.3339 1.33324H10.6672L10.2672 4.93324C9.60052 5.06657 8.98941 5.28879 8.43385 5.5999C7.8783 5.91101 7.31163 6.35546 6.73385 6.93324L3.40052 5.53324L2.06719 7.7999L4.96719 9.96657C4.85608 10.2555 4.7783 10.5777 4.73385 10.9332C4.68941 11.2888 4.66719 11.6555 4.66719 12.0332C4.66719 12.3666 4.68941 12.6999 4.73385 13.0332C4.7783 13.3666 4.84497 13.6888 4.93385 13.9999L2.06719 16.1999L3.40052 18.4666L6.70052 17.0666C7.23385 17.5999 7.7783 18.0221 8.33385 18.3332C8.88941 18.6443 9.52274 18.8888 10.2339 19.0666L10.6672 22.6666ZM11.9339 14.9332C12.7561 14.9332 13.4505 14.6499 14.0172 14.0832C14.5839 13.5166 14.8672 12.8221 14.8672 11.9999C14.8672 11.1777 14.5839 10.4832 14.0172 9.91657C13.4505 9.3499 12.7561 9.06657 11.9339 9.06657C11.1116 9.06657 10.4172 9.3499 9.85052 9.91657C9.28385 10.4832 9.00052 11.1777 9.00052 11.9999C9.00052 12.8221 9.28385 13.5166 9.85052 14.0832C10.4172 14.6499 11.1116 14.9332 11.9339 14.9332Z" fill="#8A8A8A"/>
</svg>
